<svg xmlns="http://www.w3.org/2000/svg" width="512" height="512" viewBox="0 0 512 512" version="1.1"><path d="" stroke="none" fill="#004aad" fill-rule="evenodd"/><path d="M 246.242 1.494 C 240.693 3.906, 236.437 7.782, 233.587 13.018 C 226.856 25.385, 230.415 39.590, 242.150 47.194 L 247 50.337 247 76.168 L 247 102 230.500 102 L 214 102 214 75.950 C 214 47.357, 213.644 45.338, 208.201 43.083 C 204.462 41.534, 200.482 42.572, 197.984 45.747 C 196.117 48.121, 196 49.855, 196 75.135 L 196 102 179.563 102 L 163.127 102 162.813 70.250 C 162.501 38.615, 162.491 38.484, 160.038 34.201 C 155.898 26.970, 152.498 25.558, 138.250 25.147 C 129.271 24.889, 126 24.459, 126 23.538 C 126 21.368, 117.933 13.007, 113.810 10.903 C 96.934 2.293, 76.506 15.188, 76.687 34.336 C 76.815 48.008, 86.457 58.506, 100.016 59.735 C 109.863 60.628, 118.743 56.263, 124.194 47.850 L 127.337 43 136.168 43 L 145 43 145 72.361 L 145 101.723 136.164 102.226 C 125.833 102.815, 119.050 105.647, 112.366 112.160 C 105.898 118.463, 102.819 125.766, 102.223 136.219 L 101.723 145 72.361 145 L 43 145 43 136.168 L 43 127.337 47.850 124.194 C 56.263 118.743, 60.628 109.863, 59.735 100.016 C 58.506 86.457, 48.008 76.815, 34.336 76.687 C 15.188 76.506, 2.293 96.934, 10.903 113.810 C 13.007 117.933, 21.368 126, 23.538 126 C 24.459 126, 24.888 129.285, 25.147 138.324 C 25.467 149.494, 25.733 150.988, 27.983 154.271 C 29.348 156.263, 32.273 158.930, 34.483 160.197 C 38.409 162.448, 39.221 162.507, 70.250 162.813 L 102 163.127 102 179.563 L 102 196 75.135 196 C 49.855 196, 48.121 196.117, 45.747 197.984 C 42.572 200.482, 41.534 204.462, 43.083 208.201 C 45.338 213.644, 47.357 214, 75.950 214 L 102 214 102 230.500 L 102 247 76.168 247 L 50.337 247 47.194 242.150 C 39.590 230.415, 25.385 226.856, 13.018 233.587 C 4.443 238.254, 0 245.903, 0 256 C 0 266.097, 4.443 273.746, 13.018 278.413 C 25.385 285.144, 39.590 281.585, 47.194 269.850 L 50.337 265 76.168 265 L 102 265 102 281.500 L 102 298 75.950 298 C 47.357 298, 45.338 298.356, 43.083 303.799 C 41.534 307.538, 42.572 311.518, 45.747 314.016 C 48.121 315.883, 49.855 316, 75.135 316 L 102 316 102 332.437 L 102 348.873 70.250 349.187 C 38.615 349.499, 38.484 349.509, 34.201 351.962 C 26.975 356.099, 25.557 359.506, 25.148 373.715 C 24.826 384.906, 24.628 385.983, 22.788 386.567 C 19.592 387.582, 13.035 394.011, 10.872 398.250 C 2.268 415.116, 15.224 435.493, 34.436 435.313 C 53.168 435.136, 65.523 415.410, 57.466 398.543 C 55.195 393.788, 48.640 387.199, 45.364 386.376 C 43.089 385.805, 43 385.431, 43 376.392 L 43 367 72.500 367 L 102 367 102 373.318 C 102 394.951, 117.049 410, 138.682 410 L 145 410 145 439.500 L 145 469 136.168 469 L 127.337 469 124.194 464.150 C 118.743 455.737, 109.863 451.372, 100.016 452.265 C 86.457 453.494, 76.815 463.992, 76.687 477.664 C 76.506 496.812, 96.934 509.707, 113.810 501.097 C 117.933 498.993, 126 490.632, 126 488.462 C 126 487.541, 129.285 487.112, 138.324 486.853 C 149.494 486.533, 150.988 486.267, 154.271 484.017 C 156.263 482.652, 158.930 479.727, 160.197 477.517 C 162.448 473.591, 162.507 472.779, 162.813 441.750 L 163.127 410 179.563 410 L 196 410 196 436.865 C 196 462.145, 196.117 463.879, 197.984 466.253 C 200.482 469.428, 204.462 470.466, 208.201 468.917 C 213.644 466.662, 214 464.643, 214 436.050 L 214 410 230.500 410 L 247 410 247 435.905 L 247 461.810 242.532 464.428 C 230.804 471.301, 226.845 486.595, 233.587 498.982 C 238.254 507.557, 245.903 512, 256 512 C 266.097 512, 273.746 507.557, 278.413 498.982 C 285.144 486.615, 281.585 472.410, 269.850 464.806 L 265 461.663 265 435.832 L 265 410 281.500 410 L 298 410 298 436.050 C 298 464.643, 298.356 466.662, 303.799 468.917 C 307.538 470.466, 311.518 469.428, 314.016 466.253 C 315.883 463.879, 316 462.145, 316 436.865 L 316 410 332.437 410 L 348.873 410 349.187 441.750 C 349.499 473.385, 349.509 473.516, 351.962 477.799 C 356.099 485.025, 359.506 486.443, 373.715 486.852 C 384.906 487.174, 385.983 487.372, 386.567 489.212 C 387.582 492.408, 394.011 498.965, 398.250 501.128 C 415.116 509.732, 435.493 496.776, 435.313 477.564 C 435.136 458.832, 415.410 446.477, 398.543 454.534 C 393.788 456.805, 387.199 463.360, 386.376 466.636 C 385.805 468.911, 385.431 469, 376.392 469 L 367 469 367 439.625 L 367 410.251 375.250 409.807 C 395.623 408.710, 408.743 395.594, 409.816 375.250 L 410.251 367 439.625 367 L 469 367 469 376.392 C 469 385.431, 468.911 385.805, 466.636 386.376 C 463.360 387.199, 456.805 393.788, 454.534 398.543 C 446.477 415.410, 458.832 435.136, 477.564 435.313 C 496.776 435.493, 509.732 415.116, 501.128 398.250 C 498.965 394.011, 492.408 387.582, 489.212 386.567 C 487.372 385.983, 487.174 384.906, 486.852 373.715 C 486.443 359.506, 485.025 356.099, 477.799 351.962 C 473.516 349.509, 473.385 349.499, 441.750 349.187 L 410 348.873 410 332.437 L 410 316 436.865 316 C 462.145 316, 463.879 315.883, 466.253 314.016 C 469.428 311.518, 470.466 307.538, 468.917 303.799 C 466.662 298.356, 464.643 298, 436.050 298 L 410 298 410 281.500 L 410 265 435.832 265 L 461.663 265 464.806 269.850 C 470.207 278.185, 479.220 282.670, 488.622 281.700 C 502.545 280.263, 513 268.492, 513 254.253 C 513 250.749, 512.598 248.130, 512.107 248.434 C 511.615 248.738, 510.959 247.977, 510.648 246.743 C 508.743 239.177, 498.172 231.286, 488.622 230.300 C 479.214 229.329, 469.198 234.393, 464.428 242.532 L 461.810 247 435.905 247 L 410 247 410 230.500 L 410 214 436.050 214 C 464.643 214, 466.662 213.644, 468.917 208.201 C 470.466 204.462, 469.428 200.482, 466.253 197.984 C 463.879 196.117, 462.145 196, 436.865 196 L 410 196 410 179.563 L 410 163.127 441.750 162.813 C 472.779 162.507, 473.591 162.448, 477.517 160.197 C 479.727 158.930, 482.652 156.263, 484.017 154.271 C 486.267 150.988, 486.533 149.494, 486.853 138.324 C 487.112 129.285, 487.541 126, 488.462 126 C 490.632 126, 498.993 117.933, 501.097 113.810 C 509.707 96.934, 496.812 76.506, 477.664 76.687 C 463.992 76.815, 453.494 86.457, 452.265 100.016 C 451.372 109.863, 455.737 118.743, 464.150 124.194 L 469 127.337 469 136.168 L 469 145 439.500 145 L 410 145 410 138.682 C 410 117.049, 394.951 102, 373.318 102 L 367 102 367 72.500 L 367 43 376.392 43 C 385.431 43, 385.805 43.089, 386.376 45.364 C 387.199 48.640, 393.788 55.195, 398.543 57.466 C 415.410 65.523, 435.136 53.168, 435.313 34.436 C 435.493 15.224, 415.116 2.268, 398.250 10.872 C 394.011 13.035, 387.582 19.592, 386.567 22.788 C 385.983 24.628, 384.906 24.826, 373.715 25.148 C 359.506 25.557, 356.099 26.975, 351.962 34.201 C 349.509 38.484, 349.499 38.615, 349.187 70.250 L 348.873 102 332.437 102 L 316 102 316 75.135 C 316 49.855, 315.883 48.121, 314.016 45.747 C 311.518 42.572, 307.538 41.534, 303.799 43.083 C 298.356 45.338, 298 47.357, 298 75.950 L 298 102 281.500 102 L 265 102 265 76.168 L 265 50.337 269.850 47.194 C 287.513 35.749, 285.044 9.602, 265.532 1.449 C 261.145 -0.384, 250.506 -0.359, 246.242 1.494 M 250.174 20.314 C 244.433 26.426, 251.839 36.820, 259.157 32.922 C 262.525 31.127, 263.932 28.935, 263.968 25.424 C 264.037 18.755, 254.840 15.348, 250.174 20.314 M 96.923 28.923 C 93.628 32.219, 93.361 33.863, 95.463 37.928 C 97.081 41.058, 98.803 42, 102.907 42 C 109.499 42, 112.631 32.215, 107.365 28.073 C 103.714 25.201, 100.374 25.473, 96.923 28.923 M 404.635 28.073 C 399.282 32.283, 402.490 42, 409.233 42 C 413.193 42, 414.933 41.030, 416.537 37.928 C 418.639 33.863, 418.372 32.219, 415.077 28.923 C 411.626 25.473, 408.286 25.201, 404.635 28.073 M 28.923 96.923 C 25.473 100.374, 25.201 103.714, 28.073 107.365 C 32.283 112.718, 42 109.510, 42 102.767 C 42 98.807, 41.030 97.067, 37.928 95.463 C 33.863 93.361, 32.219 93.628, 28.923 96.923 M 474.500 95.155 C 466.759 99.389, 469.434 110, 478.242 110 C 480.954 110, 482.372 109.343, 483.927 107.365 C 486.799 103.714, 486.527 100.374, 483.077 96.923 C 479.981 93.828, 477.763 93.370, 474.500 95.155 M 129.180 121.682 C 127.353 122.582, 124.653 124.899, 123.180 126.831 L 120.500 130.344 120.500 256 L 120.500 381.656 123.194 385.187 C 128.778 392.509, 118.858 392, 256 392 C 393.142 392, 383.222 392.509, 388.806 385.187 L 391.500 381.656 391.500 256 L 391.500 130.344 388.806 126.813 C 383.221 119.489, 393.167 119.997, 255.849 120.023 C 143.690 120.043, 132.199 120.194, 129.180 121.682 M 198.108 180.716 C 195.864 181.822, 194.118 183.760, 192.949 186.444 C 190.882 191.187, 162 320.526, 162 325.038 C 162 334.159, 175.443 335.960, 178.807 327.290 C 179.717 324.944, 189 284.151, 189 282.497 C 189 282.196, 196.066 282.073, 204.703 282.225 L 220.406 282.500 225.587 305.452 C 230.181 325.805, 231.070 328.664, 233.440 330.702 C 237.183 333.922, 241.462 333.692, 245.077 330.077 C 246.685 328.469, 248 326.444, 248 325.575 C 248 322.674, 217.922 188.609, 216.702 186.074 C 213.710 179.853, 204.972 177.335, 198.108 180.716 M 266.923 181.923 C 263.663 185.183, 263.293 187.732, 265.470 191.941 C 267.420 195.712, 271.538 197, 281.649 197 L 290 197 290 256 L 290 315 280.950 315 C 270.847 315, 267.094 316.303, 265.195 320.472 C 263.334 324.556, 263.758 326.912, 266.923 330.077 L 269.846 333 298.787 333 L 327.727 333 330.364 330.364 C 333.793 326.934, 333.882 322.138, 330.588 318.306 C 328.288 315.630, 327.708 315.484, 318.088 315.156 L 308 314.813 308 256 L 308 197.187 318.088 196.844 C 327.708 196.516, 328.288 196.370, 330.588 193.694 C 333.882 189.862, 333.793 185.066, 330.364 181.636 L 327.727 179 298.787 179 L 269.846 179 266.923 181.923 M 198.932 238.235 L 193.364 263.500 204.315 263.784 C 210.337 263.940, 215.469 263.864, 215.718 263.615 C 216.188 263.145, 206.444 217.849, 205.203 214.735 C 204.771 213.651, 202.352 222.717, 198.932 238.235 M 20.174 250.314 C 15.422 255.373, 18.859 264, 25.626 264 C 31.231 264, 35.438 257.566, 32.922 252.843 C 30.085 247.519, 23.945 246.301, 20.174 250.314 M 481.913 249.282 C 475.540 254.175, 478.611 264, 486.514 264 C 493.253 264, 496.672 254.859, 491.686 250.174 C 489.139 247.782, 484.427 247.352, 481.913 249.282 M 0.336 256 C 0.336 260.125, 0.513 261.813, 0.728 259.750 C 0.944 257.688, 0.944 254.313, 0.728 252.250 C 0.513 250.188, 0.336 251.875, 0.336 256 M 28.073 404.635 C 25.201 408.286, 25.473 411.626, 28.923 415.077 C 32.219 418.372, 33.863 418.639, 37.928 416.537 C 41.058 414.919, 42 413.197, 42 409.093 C 42 402.501, 32.215 399.369, 28.073 404.635 M 472.174 404.314 C 468.491 408.235, 469.405 414.124, 474.072 416.537 C 478.137 418.639, 479.781 418.372, 483.077 415.077 C 486.527 411.626, 486.799 408.286, 483.927 404.635 C 481.159 401.115, 475.329 400.956, 472.174 404.314 M 98.229 470.669 C 96.686 471.290, 94 476.281, 94 478.527 C 94 481.016, 99.528 486, 102.288 486 C 106.479 486, 110 482.394, 110 478.102 C 110 472.012, 104.120 468.299, 98.229 470.669 M 404.174 472.314 C 401.003 475.690, 401.223 481.244, 404.635 483.927 C 408.286 486.799, 411.626 486.527, 415.077 483.077 C 418.372 479.781, 418.639 478.137, 416.537 474.072 C 414.082 469.324, 407.820 468.434, 404.174 472.314 M 252.500 479.208 C 244.895 483.569, 247.462 494, 256.140 494 C 264.668 494, 266.971 483.241, 259.316 479.163 C 256.614 477.724, 255.069 477.734, 252.500 479.208" stroke="none" fill="#004aad" fill-rule="evenodd"/></svg>