<?xml version="1.0" standalone="no"?>
<!DOCTYPE svg PUBLIC "-//W3C//DTD SVG 20010904//EN"
 "http://www.w3.org/TR/2001/REC-SVG-20010904/DTD/svg10.dtd">
<svg version="1.0" xmlns="http://www.w3.org/2000/svg"
 width="512.000000pt" height="512.000000pt" viewBox="0 0 512.000000 512.000000"
 preserveAspectRatio="xMidYMid meet">

<g transform="translate(0.000000,512.000000) scale(0.100000,-0.100000)"
fill="#00700c" stroke="none">
<path d="M3965 5015 c-162 -48 -264 -88 -430 -170 -253 -124 -497 -284 -728
-477 -69 -58 -85 -66 -129 -70 -50 -5 -51 -7 -224 -179 -173 -173 -203 -214
-191 -261 4 -14 -13 -43 -62 -103 -141 -172 -285 -382 -379 -555 l-41 -76
-164 -12 c-491 -36 -843 -164 -926 -336 -21 -43 -21 -44 -19 -1189 l3 -1145
30 -44 c99 -140 352 -239 755 -294 178 -25 633 -25 815 0 422 57 692 170 764
319 21 43 21 49 21 1181 0 1118 0 1137 -20 1176 -65 127 -283 234 -593 290
-61 11 -129 24 -149 28 l-37 7 176 186 c169 179 177 186 207 179 17 -3 46 -2
65 3 l34 9 676 -675 c744 -743 711 -715 803 -688 49 15 187 142 212 196 20 42
20 98 1 138 -8 18 -316 333 -684 701 -662 662 -669 669 -659 698 6 16 8 46 5
66 -6 35 -4 38 131 167 221 212 441 414 690 632 228 200 232 205 232 243 0 30
-6 43 -26 59 -34 26 -59 26 -159 -4z m-265 -269 c0 -2 -75 -72 -167 -156 -93
-84 -255 -236 -361 -338 l-194 -185 -64 65 -65 64 123 99 c169 134 404 289
578 379 151 79 150 78 150 72z m-1210 -1159 c0 -5 -74 -86 -164 -180 -90 -95
-232 -247 -316 -339 -84 -93 -154 -168 -156 -168 -2 0 23 53 55 119 104 206
227 397 383 593 l80 100 59 -58 c32 -32 59 -62 59 -67z m1143 -545 l657 -657
-55 -55 -55 -55 -660 660 -660 660 52 52 c29 29 55 53 58 53 3 0 301 -296 663
-658z m-1938 -99 c-57 -131 -135 -373 -135 -418 0 -12 9 -34 21 -49 16 -20 29
-26 59 -26 38 0 43 5 212 197 95 109 196 222 224 252 l51 55 109 -13 c227 -26
423 -78 554 -147 118 -62 137 -107 72 -166 -204 -184 -938 -271 -1492 -177
-231 39 -421 106 -503 178 -47 42 -48 72 -4 114 98 92 386 177 697 206 148 13
143 13 135 -6z m-789 -527 c128 -63 307 -109 549 -142 181 -25 635 -25 820 -1
232 31 451 89 577 153 l48 24 0 -256 0 -256 -32 -30 c-104 -97 -398 -180 -737
-209 -193 -16 -534 -7 -708 20 -254 39 -463 108 -547 183 l-46 40 0 254 c0
140 2 254 4 254 2 0 35 -15 72 -34z m132 -776 c211 -70 505 -110 825 -110 404
0 756 60 969 165 l68 34 0 -259 0 -258 -37 -33 c-102 -89 -376 -170 -678 -199
-147 -15 -505 -15 -640 0 -318 33 -583 113 -680 204 l-35 33 0 257 0 256 60
-30 c33 -17 100 -44 148 -60z m-54 -705 c500 -188 1438 -170 1848 36 32 16 60
29 63 29 3 0 5 -114 5 -254 l0 -254 -38 -34 c-204 -185 -938 -272 -1491 -177
-234 39 -437 112 -508 181 l-33 32 0 257 0 258 43 -24 c23 -13 73 -36 111 -50z"/>
<path d="M1699 2021 c-31 -32 -35 -50 -17 -84 22 -43 37 -46 186 -47 139 0
144 1 167 25 27 26 31 54 13 88 -22 43 -37 46 -181 47 l-139 0 -29 -29z"/>
<path d="M1720 1317 c-61 -31 -61 -108 1 -140 29 -15 54 -18 162 -15 127 3
129 3 153 31 30 36 30 68 0 104 -24 28 -25 28 -158 31 -95 2 -140 -1 -158 -11z"/>
<path d="M1712 593 c-21 -8 -43 -61 -36 -88 3 -14 18 -34 31 -45 23 -18 41
-20 154 -20 138 0 170 8 188 47 17 37 13 62 -14 88 -23 24 -28 25 -167 24 -79
0 -149 -3 -156 -6z"/>
</g>
</svg>
